<svg width="40" height="40" viewBox="0 0 40 40" fill="none" xmlns="http://www.w3.org/2000/svg">
<path d="M28.5885 16.3981C28.7098 16.6119 28.8272 16.8702 28.7132 17.0748C28.6846 17.122 28.6724 17.1773 28.6786 17.2321C28.7006 17.376 28.8294 17.3648 28.9305 17.3914C28.9947 17.4092 29.0537 17.4424 29.1022 17.488C29.1787 17.5931 29.2632 17.6921 29.3549 17.7843C29.4181 17.8501 29.4894 17.9077 29.5671 17.9556C29.6791 18.0263 29.8141 18.0506 29.9436 18.0237C30.163 17.9757 30.365 17.8685 30.5279 17.7139C30.5425 17.698 30.5625 17.688 30.584 17.6858C30.6055 17.6836 30.6271 17.6892 30.6447 17.7018C30.7842 17.7951 30.8964 17.9239 30.9697 18.075C31.3194 17.7204 32.1021 16.7902 32.1021 16.7902C32.0654 16.7507 32.0343 16.7063 32.0098 16.6582C31.9762 16.5838 31.9615 16.5022 31.9672 16.4208C31.6553 16.4376 31.1682 16.2887 30.966 16.1287L30.9473 16.1134C30.9761 15.9564 30.9461 15.7943 30.8629 15.6581C30.8361 15.607 30.7979 15.5629 30.7512 15.5291C30.7045 15.4953 30.6507 15.4728 30.5938 15.4633C30.5561 15.4622 30.5186 15.4694 30.484 15.4845C30.4495 15.4996 30.4187 15.5222 30.3939 15.5507C30.3381 15.6144 30.3064 15.6956 30.3043 15.7802C30.0919 15.6643 30.0129 15.5957 29.831 15.5444C29.5147 15.4689 29.0792 15.4331 28.6923 15.5903C28.5336 15.6548 28.4012 15.7708 28.3164 15.9196C28.372 16.0475 28.4407 16.1692 28.5217 16.2828C28.5428 16.3193 28.5658 16.358 28.5885 16.3981Z" fill="white"/>
<path d="M28.5276 14.2418C28.2757 14.5549 28.1419 14.9467 28.1497 15.3485C28.1632 15.5499 28.2191 15.7462 28.3137 15.9244C28.398 15.7731 28.5315 15.6551 28.6921 15.5901C29.079 15.4329 29.5144 15.4688 29.8308 15.5443C30.0126 15.5955 30.092 15.6641 30.3041 15.78C30.3062 15.6954 30.3379 15.6142 30.3937 15.5505C30.4184 15.5221 30.4492 15.4995 30.4838 15.4843C30.5184 15.4692 30.5559 15.462 30.5936 15.4631C30.6504 15.4726 30.7043 15.4951 30.751 15.5289C30.7977 15.5627 30.8359 15.6068 30.8626 15.6579C30.9458 15.7941 30.9759 15.9563 30.9471 16.1133L30.9657 16.1285C31.168 16.2887 31.6552 16.4375 31.9672 16.4205C31.9853 16.2383 32.0167 16.0578 32.0612 15.8802C32.1622 15.3429 32.05 14.7875 31.7484 14.3315C31.5318 14.0215 31.2346 13.7766 30.889 13.6232C30.1062 13.2853 29.5847 13.4728 29.2812 13.6166C28.9919 13.7584 28.7393 13.9651 28.5432 14.2207C28.538 14.228 28.5328 14.235 28.5276 14.2418Z" fill="#7A7473"/>
<path d="M28.1483 15.998C28.2272 16.1596 28.3156 16.3163 28.4132 16.4673C28.4857 16.5932 28.5918 16.7615 28.5723 16.9146C28.5621 16.994 28.51 17.0614 28.4968 17.1418C28.4808 17.2323 28.4991 17.3254 28.5481 17.4031C28.6406 17.5439 28.7838 17.5306 28.9213 17.5856C28.9773 17.6079 29.0098 17.6738 29.0532 17.727C29.1109 17.7983 29.1727 17.8662 29.2382 17.9304C29.3672 18.0694 29.5351 18.1664 29.72 18.2086C29.8914 18.2311 30.0656 18.2032 30.2214 18.1282C30.3032 18.0954 30.3819 18.0554 30.4567 18.0087C30.4946 17.9845 30.5307 17.9579 30.566 17.93C30.5833 17.9167 30.6002 17.9028 30.6164 17.8883C30.6476 17.8652 30.6472 17.8603 30.6154 17.8743L30.5213 17.8488C30.5641 17.8668 30.6024 17.8941 30.6332 17.9288C30.7078 17.9957 30.7677 18.0775 30.8089 18.1688C30.8341 18.2113 30.875 18.2421 30.9228 18.2546C30.9706 18.2672 31.0213 18.2604 31.0642 18.2358C31.106 18.21 31.1363 18.1691 31.1488 18.1216C31.1613 18.0741 31.1549 18.0235 31.1311 17.9805C31.0492 17.7988 30.8513 17.5449 30.6404 17.5047C30.471 17.4723 30.3808 17.6176 30.2535 17.6964C30.134 17.7785 29.9963 17.8305 29.8524 17.8481C29.5267 17.8634 29.3827 17.4546 29.1583 17.2957C29.101 17.2552 29.0366 17.2257 28.9686 17.2085C28.951 17.2041 28.8415 17.1759 28.838 17.179C28.8286 17.1877 28.8753 17.2031 28.8641 17.2069C28.8679 17.1885 28.8739 17.1707 28.882 17.1537C28.8986 17.1188 28.913 17.0829 28.9249 17.0461C28.9451 16.9701 28.9504 16.8909 28.9406 16.8129C28.8976 16.4336 28.6156 16.1491 28.4706 15.81C28.4454 15.7675 28.4045 15.7366 28.3567 15.7241C28.3089 15.7116 28.2581 15.7184 28.2153 15.7431C28.1735 15.7689 28.1432 15.8098 28.1308 15.8573C28.1183 15.9048 28.1246 15.9553 28.1483 15.9983V15.998Z" fill="#211715"/>
<path d="M28.5094 15.8944C28.4037 15.7092 28.3457 15.5005 28.3407 15.2872C28.3357 15.074 28.3839 14.8629 28.4809 14.6729C28.5932 14.442 28.7507 14.2359 28.9439 14.0668C29.1372 13.8977 29.3623 13.769 29.6061 13.6883C30.084 13.5404 30.6137 13.6521 31.0346 13.9102C31.2771 14.0575 31.4817 14.2595 31.6322 14.5001C31.7827 14.7406 31.8748 15.013 31.9012 15.2954C31.9191 15.5381 31.8991 15.7821 31.8419 16.0186C31.801 16.1694 31.7806 16.325 31.7814 16.4812C31.7909 16.6458 31.8578 16.8019 31.9704 16.9224C32.1283 17.1039 32.3913 16.839 32.2342 16.6585C32.0587 16.4568 32.2068 16.1376 32.2453 15.9081C32.2893 15.6505 32.2925 15.3875 32.2546 15.1289C32.2053 14.8094 32.0859 14.5047 31.905 14.2368C31.7242 13.9688 31.4862 13.7441 31.2083 13.5789C30.7158 13.2823 30.0888 13.1572 29.5303 13.3215C28.972 13.4921 28.5007 13.8707 28.2139 14.3791C28.0641 14.6415 27.9779 14.9353 27.962 15.2369C27.9593 15.5341 28.0374 15.8264 28.1878 16.0828C28.3035 16.2932 28.6262 16.1051 28.5099 15.8944H28.5094Z" fill="#211715"/>
<path d="M30.8346 16.2608C30.9913 16.3764 31.1678 16.4625 31.3555 16.5148C31.5456 16.5767 31.7443 16.6082 31.9442 16.6081C31.9937 16.6081 32.0412 16.5884 32.0762 16.5534C32.1112 16.5185 32.1308 16.471 32.1308 16.4215C32.1308 16.372 32.1112 16.3246 32.0762 16.2896C32.0412 16.2546 31.9937 16.2349 31.9442 16.2349C31.9052 16.2358 31.8663 16.2347 31.8274 16.2317C31.8067 16.2302 31.7861 16.2275 31.7654 16.2258C31.7417 16.2236 31.8021 16.2315 31.7654 16.2258L31.7369 16.2213C31.6462 16.2063 31.5567 16.1855 31.4687 16.159C31.4265 16.1463 31.3848 16.1324 31.3431 16.1171C31.323 16.1097 31.3032 16.1019 31.2833 16.094C31.2618 16.0856 31.277 16.0931 31.2895 16.0967C31.2789 16.0929 31.2686 16.0883 31.2586 16.083C31.2239 16.0671 31.1898 16.05 31.1567 16.0311C31.1415 16.0224 31.1266 16.0135 31.1121 16.004C31.0975 15.9945 31.0505 15.9594 31.0983 15.9965C31.0623 15.963 31.0154 15.9436 30.9663 15.9419C30.9294 15.9419 30.8934 15.9528 30.8627 15.9733C30.832 15.9938 30.8081 16.023 30.794 16.0571C30.7799 16.0912 30.7762 16.1287 30.7834 16.1649C30.7906 16.201 30.8083 16.2343 30.8344 16.2604L30.8346 16.2608Z" fill="#211715"/>
<path d="M28.7416 15.7704C29.003 15.6721 29.285 15.642 29.5612 15.6829C29.6734 15.6939 29.7836 15.7203 29.8887 15.7612C29.9049 15.7682 29.9754 15.8068 30.0106 15.8271C30.0703 15.8616 30.1295 15.8968 30.1896 15.9304C30.3996 16.0476 30.5879 15.7252 30.3779 15.6082C30.2583 15.5348 30.1345 15.4684 30.0072 15.4094C29.8718 15.3586 29.7302 15.3261 29.5861 15.3128C29.2684 15.266 28.9439 15.2996 28.6425 15.4106C28.5955 15.4249 28.5558 15.4567 28.5315 15.4993C28.5072 15.542 28.5002 15.5924 28.5119 15.6401C28.5252 15.6877 28.5568 15.728 28.5998 15.7525C28.6428 15.7769 28.6936 15.7835 28.7414 15.7707L28.7416 15.7704Z" fill="#211715"/>
<path d="M30.4915 15.7775C30.4942 15.7626 30.4971 15.7478 30.5008 15.7332C30.5022 15.7281 30.5151 15.6884 30.5059 15.7135C30.4966 15.7386 30.518 15.6943 30.5203 15.6891C30.5272 15.6737 30.5017 15.7055 30.5257 15.6829C30.5314 15.6774 30.5686 15.6492 30.5357 15.6704C30.5464 15.6636 30.5578 15.6578 30.5682 15.6508C30.5854 15.6393 30.5388 15.6584 30.5716 15.6508C30.6173 15.6402 30.5322 15.6508 30.5791 15.6497C30.6204 15.6487 30.5477 15.6369 30.5863 15.6503C30.5917 15.6522 30.6284 15.6675 30.605 15.6557C30.5815 15.644 30.6181 15.6642 30.6226 15.6669C30.6319 15.6728 30.6599 15.7003 30.6343 15.6739C30.6436 15.6833 30.6529 15.6912 30.6622 15.7004C30.6662 15.7044 30.6972 15.7413 30.6827 15.7221C30.6681 15.7029 30.6912 15.7357 30.6938 15.7399C30.7031 15.7543 30.7107 15.7692 30.7183 15.7842C30.7203 15.7879 30.7406 15.8297 30.7313 15.8095C30.7219 15.7892 30.7393 15.8305 30.7406 15.8346C30.751 15.8655 30.7597 15.897 30.7665 15.9289C30.7749 15.9645 30.7665 15.9116 30.768 15.934C30.7689 15.947 30.7705 15.96 30.7709 15.973C30.772 16.0042 30.7709 16.0354 30.7674 16.0663C30.7703 16.0398 30.7693 16.0516 30.7653 16.0709C30.7626 16.0838 30.7596 16.0967 30.756 16.1094C30.7518 16.1249 30.7467 16.1404 30.7419 16.1561C30.7404 16.1603 30.7247 16.2015 30.7335 16.1799C30.7424 16.1582 30.7242 16.1996 30.7222 16.2035C30.7146 16.2191 30.7065 16.2344 30.6979 16.2494C30.6801 16.2809 30.6606 16.3112 30.6395 16.3409C30.6147 16.3837 30.6079 16.4345 30.6204 16.4823C30.633 16.5301 30.6638 16.571 30.7064 16.5961C30.7494 16.6199 30.7999 16.6262 30.8474 16.6137C30.8949 16.6013 30.9359 16.571 30.9617 16.5293C31.07 16.3806 31.1332 16.2039 31.1439 16.0203C31.1486 15.8449 31.098 15.6725 30.9992 15.5275C30.9481 15.4434 30.8738 15.3758 30.7852 15.333C30.6966 15.2901 30.5976 15.2737 30.4999 15.2858C30.4063 15.3073 30.3213 15.3562 30.2555 15.4262C30.1898 15.4962 30.1464 15.5841 30.1307 15.6789C30.1242 15.7025 30.1224 15.7272 30.1254 15.7515C30.1285 15.7758 30.1362 15.7993 30.1483 15.8206C30.1604 15.842 30.1766 15.8607 30.196 15.8757C30.2153 15.8908 30.2374 15.9019 30.261 15.9084C30.2847 15.9149 30.3093 15.9167 30.3337 15.9137C30.358 15.9107 30.3815 15.9029 30.4028 15.8908C30.4241 15.8787 30.4428 15.8626 30.4579 15.8432C30.473 15.8239 30.4841 15.8018 30.4906 15.7781L30.4915 15.7775Z" fill="#211715"/>
<path d="M28.9305 16.386C28.9505 16.4899 29.0745 16.6887 29.2457 16.6224C29.4592 16.5104 29.3415 16.2529 29.2084 16.1722C29.0996 16.1062 28.9053 16.156 28.9305 16.386Z" fill="#211715"/>
<path d="M30.9316 16.988C30.9706 16.9326 31.0034 16.8732 31.0295 16.8107C31.0688 16.7233 31.1035 16.6338 31.1335 16.5428C31.1587 16.4675 31.1798 16.3909 31.1968 16.3133C31.2141 16.2447 31.223 16.1743 31.2233 16.1036C31.2233 16.0541 31.2036 16.0066 31.1686 15.9716C31.1336 15.9366 31.0862 15.917 31.0367 15.917C30.9872 15.917 30.9398 15.9366 30.9048 15.9716C30.8698 16.0066 30.8501 16.0541 30.8501 16.1036C30.8501 16.1146 30.8501 16.1256 30.8501 16.1366C30.8501 16.1476 30.8441 16.1915 30.8495 16.1517C30.8551 16.1104 30.8475 16.1622 30.8456 16.1724C30.8426 16.1892 30.8392 16.2061 30.8355 16.2228C30.8188 16.2974 30.7983 16.3711 30.7742 16.4436C30.7621 16.4805 30.7492 16.5171 30.7355 16.5534C30.7281 16.5729 30.7202 16.5921 30.7126 16.6115C30.6984 16.6471 30.7313 16.5697 30.7157 16.6043C30.7117 16.6136 30.7077 16.6223 30.7037 16.6313C30.6785 16.6905 30.647 16.7468 30.6098 16.7993C30.5973 16.8208 30.5892 16.8446 30.586 16.8693C30.5828 16.8939 30.5846 16.919 30.5911 16.943C30.6044 16.9898 30.6351 17.0297 30.6769 17.0545C30.7199 17.0781 30.7703 17.0843 30.8178 17.0719C30.8653 17.0594 30.9062 17.0293 30.9321 16.9876L30.9316 16.988Z" fill="#211715"/>
<path d="M30.0872 16.5697C30.1266 16.4309 30.1735 16.2939 30.2257 16.1593C30.2338 16.1383 30.2421 16.1173 30.2505 16.0965C30.2548 16.0858 30.2592 16.0753 30.2635 16.0647C30.2528 16.0892 30.2807 16.0228 30.2635 16.0647C30.2831 16.0204 30.3026 15.9761 30.3237 15.9325C30.363 15.8496 30.4082 15.7696 30.4589 15.6932C30.4836 15.6503 30.4904 15.5996 30.4778 15.5518C30.4653 15.504 30.4344 15.4631 30.3919 15.4379C30.349 15.4141 30.2985 15.4077 30.2509 15.4202C30.2034 15.4327 30.1625 15.463 30.1367 15.5048C30.0284 15.6754 29.9392 15.8574 29.8707 16.0475C29.8166 16.186 29.7681 16.3274 29.7274 16.4704C29.7143 16.5181 29.7206 16.5691 29.745 16.6121C29.7695 16.6552 29.81 16.6867 29.8577 16.6999C29.9055 16.713 29.9564 16.7067 29.9995 16.6823C30.0425 16.6578 30.0741 16.6173 30.0872 16.5696V16.5697Z" fill="#211715"/>
<path d="M30.0183 16.5413C29.9864 16.5184 29.9494 16.5037 29.9105 16.4984C29.8716 16.4932 29.832 16.4976 29.7952 16.5112C29.4794 16.6347 29.1701 16.7742 28.8685 16.9291C28.8144 16.9562 28.6743 17.0602 28.6632 17.152C28.658 17.1983 28.6625 17.2452 28.6764 17.2896C28.6903 17.3341 28.7132 17.3752 28.7438 17.4103C28.8214 17.5202 28.9105 17.6216 29.0094 17.7128C29.1307 17.824 29.4106 18.0685 29.576 18.1096C29.9687 18.2069 30.1577 18.0585 30.3586 17.8976C30.5437 17.73 30.661 17.5004 30.6883 17.2522C30.6911 17.2248 30.6881 17.1972 30.6794 17.1711C30.6706 17.145 30.6564 17.1211 30.6376 17.101C30.5536 17.0104 30.4211 16.9462 30.2978 16.8352C30.1953 16.7427 30.102 16.601 30.0183 16.5413Z" fill="white"/>
<path d="M30.1126 16.3802C29.8799 16.2346 29.6426 16.3673 29.4196 16.4637C29.2106 16.5539 29.0045 16.6518 28.8014 16.7545C28.6213 16.8456 28.4588 17.0109 28.4758 17.2261C28.4935 17.4479 28.6723 17.6425 28.8232 17.7927C29.0975 18.0658 29.4269 18.3426 29.8359 18.3268C30.2234 18.3116 30.5916 18.0197 30.7542 17.6775C30.8755 17.4219 30.9539 17.1124 30.7044 16.9096C30.6072 16.8307 30.4967 16.7686 30.4064 16.681C30.326 16.586 30.2405 16.4952 30.1504 16.4093C30.1146 16.3757 30.0674 16.3571 30.0184 16.3571C29.9694 16.3571 29.9222 16.3757 29.8865 16.4093C29.8518 16.4444 29.8323 16.4919 29.8323 16.5412C29.8323 16.5906 29.8518 16.638 29.8865 16.6732C30.0257 16.7817 30.1197 16.9359 30.2611 17.0444C30.3274 17.0952 30.4004 17.1386 30.4637 17.1927C30.4837 17.2098 30.4992 17.2217 30.5029 17.2443C30.5014 17.2886 30.4917 17.3324 30.4743 17.3732C30.4374 17.5027 30.3698 17.6214 30.2774 17.7194C30.1849 17.8173 30.0703 17.8915 29.9431 17.9359C29.6588 18.0169 29.4425 17.844 29.2384 17.6674C29.1219 17.5704 29.0162 17.4609 28.9235 17.3409C28.8955 17.3036 28.8376 17.2377 28.8475 17.189C28.8517 17.1681 28.9017 17.1277 28.9324 17.1074C29.092 17.0141 29.2584 16.9331 29.4302 16.8648C29.5216 16.8229 29.6135 16.7821 29.7067 16.7444C29.774 16.7172 29.856 16.6594 29.9242 16.7021C30.1285 16.8301 30.316 16.5073 30.1126 16.3802Z" fill="#211715"/>
<path d="M22.5117 17.4969C22.9993 17.4969 24.4306 17.4876 24.8856 17.4876V14.1971C24.4306 14.1971 22.9872 14.2157 22.4995 14.2157C22.4995 14.9301 22.5117 16.4322 22.5117 17.4971" fill="white"/>
<path d="M22.5118 17.6835C23.303 17.6835 24.0944 17.6742 24.8857 17.6742C24.9349 17.6735 24.982 17.6536 25.0168 17.6187C25.0517 17.5839 25.0716 17.5369 25.0723 17.4876V14.1971C25.0716 14.1478 25.0517 14.1008 25.0168 14.0659C24.982 14.0311 24.9349 14.0112 24.8857 14.0105C24.0902 14.0105 23.295 14.0292 22.4996 14.0292C22.4503 14.0299 22.4033 14.0498 22.3684 14.0846C22.3336 14.1194 22.3137 14.1665 22.313 14.2157C22.313 15.3095 22.325 16.4033 22.3252 17.4971C22.3252 17.7371 22.6984 17.7376 22.6984 17.4971C22.6984 16.4033 22.6864 15.3095 22.6862 14.2157L22.4996 14.4023C23.295 14.4023 24.0902 14.3837 24.8857 14.3837L24.6991 14.1971V17.4876L24.8857 17.301C24.0944 17.301 23.303 17.3103 22.5118 17.3103C22.2717 17.3103 22.2712 17.6835 22.5118 17.6835Z" fill="#211715"/>
<path d="M23.4879 16.7094H23.8858C23.9352 16.7088 23.9824 16.6892 24.0177 16.6547C24.0438 16.6286 24.0616 16.5954 24.0688 16.5592C24.076 16.523 24.0723 16.4855 24.0582 16.4514C24.044 16.4173 24.0201 16.3882 23.9895 16.3677C23.9588 16.3472 23.9227 16.3362 23.8858 16.3362H23.4879C23.4386 16.3369 23.3914 16.3564 23.356 16.3908C23.3299 16.4169 23.3121 16.4501 23.3049 16.4864C23.2977 16.5226 23.3013 16.5601 23.3155 16.5942C23.3296 16.6283 23.3535 16.6575 23.3842 16.678C23.4149 16.6985 23.451 16.7094 23.4879 16.7094Z" fill="#211715"/>
<path d="M19.7037 31.6793V6.3722C17.5508 6.3722 14.4596 6.29187 11.1992 6.29187C8.53767 6.29187 5.24307 6.22181 2.7508 6.22181V6.34561C2.74875 8.63412 2.69482 14.1781 2.69482 15.8324C2.69482 19.7215 2.73419 25.8953 2.73438 31.5417" fill="#BDBDBD"/>
<path d="M18.5281 31.7603V7.57346C16.7413 7.57346 13.9052 7.50675 11.199 7.50675C8.98972 7.50675 5.98443 7.44863 3.91628 7.44863V7.55126C3.9146 9.45073 3.86963 14.5609 3.86963 15.934C3.86963 19.162 3.90228 26.9596 3.90247 31.6461" fill="#D9D9D9"/>
<path d="M18.7148 31.7603V7.57346C18.7141 7.52419 18.6942 7.47715 18.6593 7.44232C18.6245 7.40748 18.5775 7.38759 18.5282 7.38687C16.625 7.38687 14.7225 7.34199 12.8197 7.32707C10.8619 7.31167 8.90431 7.30663 6.94652 7.2848C5.93652 7.27361 4.92642 7.26223 3.91632 7.26204C3.86705 7.26274 3.82 7.28262 3.78515 7.31746C3.75031 7.3523 3.73043 7.39936 3.72973 7.44863C3.72973 8.89768 3.71667 10.3468 3.70687 11.7962C3.69754 13.1481 3.68486 14.5002 3.68336 15.8522C3.68187 17.2495 3.68719 18.6469 3.69083 20.0442C3.69574 21.9163 3.70087 23.7884 3.70622 25.6605C3.71082 27.4664 3.71393 29.2723 3.71555 31.0782C3.71555 31.2675 3.71555 31.457 3.71555 31.6464C3.71555 31.8865 4.08873 31.8869 4.08873 31.6464C4.08873 29.8844 4.08599 28.1224 4.08052 26.3603C4.07585 24.4682 4.07072 22.576 4.06512 20.6838C4.06102 19.1911 4.05791 17.6984 4.05579 16.2057C4.05524 14.938 4.06662 13.6703 4.0752 12.4027C4.08537 10.8899 4.09759 9.37702 4.10151 7.86425C4.10188 7.72587 4.1021 7.58751 4.10216 7.44919L3.91557 7.63578C5.77027 7.63578 7.62496 7.66946 9.47956 7.68532C11.5106 7.70276 13.5414 7.70519 15.5724 7.73196C16.5573 7.74502 17.5424 7.75995 18.5274 7.76051L18.3409 7.57392V31.7603C18.3409 32.0005 18.714 32.0008 18.714 31.7603H18.7148Z" fill="#211715"/>
<path d="M19.8904 31.6793V6.3722C19.8897 6.32294 19.8698 6.27589 19.835 6.24106C19.8001 6.20622 19.7531 6.18633 19.7038 6.18561C17.5596 6.18561 15.4156 6.13327 13.2715 6.1148C10.9638 6.09502 8.65619 6.09119 6.34828 6.06321C5.14926 6.0494 3.95014 6.03522 2.75093 6.03522C2.70167 6.03592 2.65461 6.0558 2.61977 6.09064C2.58493 6.12548 2.56505 6.17254 2.56435 6.22181C2.56435 7.56646 2.55296 8.91111 2.54335 10.2557C2.53309 11.7035 2.52302 13.1513 2.51313 14.5991C2.50566 15.9198 2.5093 17.2404 2.51313 18.5611C2.51854 20.5065 2.52522 22.4518 2.53319 24.3971C2.54046 26.5138 2.54538 28.6306 2.54793 30.7474C2.54793 31.0122 2.54793 31.277 2.54793 31.5417C2.54793 31.7819 2.9211 31.7822 2.9211 31.5417C2.9211 29.4151 2.91697 27.2884 2.9087 25.1619C2.90216 23.1792 2.89526 21.1965 2.88798 19.2139C2.8836 17.8113 2.87735 16.4086 2.88407 15.0063C2.89066 13.6131 2.89999 12.2197 2.91205 10.8261C2.92213 9.43645 2.93323 8.04683 2.93659 6.65721C2.93696 6.51223 2.93715 6.36722 2.93715 6.22218L2.75056 6.40877C4.9469 6.40877 7.14305 6.4514 9.3392 6.46997C11.6859 6.48975 14.0319 6.49329 16.3789 6.52595C17.4872 6.54153 18.5954 6.55879 19.7038 6.55897L19.5172 6.37238V31.6793C19.5172 31.9194 19.8904 31.9199 19.8904 31.6793Z" fill="#211715"/>
<path d="M0.180245 31.9483C2.33796 31.9483 4.49577 31.9561 6.65348 31.9568C7.31711 31.9568 7.98075 31.9574 8.64438 31.9587C9.70794 31.9599 10.7718 31.9612 11.8359 31.9629C13.1958 31.9647 14.5556 31.9667 15.9153 31.9687L20.5266 31.9756L25.304 31.9829C26.8527 31.9854 28.4012 31.9877 29.9495 31.9899L34.0973 31.996C35.1954 31.9975 36.2933 31.9989 37.3911 32.0004C38.1001 32.0012 38.8094 32.0019 39.519 32.0024H39.8197C40.0599 32.0024 40.0603 31.6292 39.8197 31.6292C39.2243 31.6292 38.6288 31.6288 38.0332 31.6278C37.0153 31.6267 35.9973 31.6254 34.9793 31.6239C33.6601 31.6222 32.3409 31.6203 31.0216 31.6182L26.466 31.6114L21.6725 31.6041L17.0056 31.5972L12.7646 31.5909C11.6149 31.5892 10.4651 31.5877 9.31526 31.5862C8.54646 31.5852 7.77762 31.5844 7.00875 31.5837C5.319 31.5825 3.62919 31.5802 1.93931 31.5767C1.35299 31.5757 0.766632 31.5751 0.180245 31.575C-0.059895 31.575 -0.0602682 31.9482 0.180245 31.9482V31.9483Z" fill="#211715"/>
<path d="M16.111 18.3367C15.6497 18.3367 15.3872 18.6315 15.3872 19.0302C15.3872 19.398 15.5669 19.7625 16.16 19.7625C16.6003 19.7625 16.8449 19.49 16.8449 19.0496C16.8449 18.6372 16.5583 18.3367 16.111 18.3367Z" fill="#BDBDBD"/>
<path d="M16.111 18.1501C15.7126 18.1541 15.346 18.3662 15.2355 18.7653C15.1478 19.0812 15.2148 19.4805 15.4617 19.7101C15.749 19.9772 16.2409 20.0217 16.5889 19.8564C16.93 19.6944 17.0675 19.2911 17.0238 18.9349C17.0033 18.7212 16.9045 18.5226 16.7463 18.3773C16.5686 18.2278 16.3432 18.1472 16.111 18.1501C15.8709 18.1474 15.8707 18.5206 16.111 18.5232C16.132 18.5232 16.1529 18.5239 16.1738 18.5253C16.1727 18.5253 16.2391 18.5324 16.2044 18.5274C16.2423 18.5332 16.2798 18.5418 16.3164 18.5533C16.3282 18.5569 16.3398 18.5613 16.3515 18.5651C16.4042 18.5824 16.3258 18.5492 16.3739 18.5745C16.4107 18.5928 16.4459 18.6141 16.4794 18.638C16.453 18.6182 16.4825 18.6412 16.4887 18.6469C16.499 18.6567 16.5098 18.6662 16.5198 18.6764C16.5318 18.6886 16.543 18.7014 16.5542 18.7144C16.5293 18.6854 16.5635 18.7282 16.5659 18.7315C16.582 18.7556 16.595 18.781 16.609 18.8061C16.6349 18.8528 16.6005 18.7749 16.6179 18.826C16.6256 18.8486 16.6333 18.8709 16.6394 18.8942C16.644 18.9119 16.6473 18.9297 16.6513 18.9476C16.664 19.0041 16.6503 18.9282 16.6539 18.9627C16.6574 18.9982 16.6588 19.0338 16.6581 19.0695C16.6577 19.0893 16.6569 19.109 16.6555 19.1286C16.6555 19.1301 16.6486 19.1928 16.6539 19.1545C16.6489 19.1901 16.6413 19.2253 16.6314 19.2599C16.6267 19.2764 16.6207 19.2925 16.6157 19.309C16.6002 19.3591 16.6325 19.2802 16.6088 19.3259C16.5963 19.3498 16.5842 19.3736 16.5695 19.3963C16.566 19.4016 16.5343 19.4421 16.5614 19.4096C16.5514 19.4216 16.5411 19.4334 16.5302 19.4446C16.5193 19.4558 16.5074 19.466 16.4962 19.4768C16.4664 19.5054 16.5166 19.4662 16.4842 19.4861C16.4562 19.5032 16.4296 19.5195 16.4002 19.5339C16.4376 19.5157 16.3883 19.5382 16.3831 19.5401C16.3668 19.5457 16.3504 19.5507 16.3336 19.5551C16.3223 19.5582 16.3108 19.5609 16.2993 19.5634C16.2968 19.5634 16.2384 19.5742 16.2766 19.5688C16.2297 19.5747 16.1824 19.5769 16.1352 19.5754C16.0037 19.5791 15.874 19.5444 15.762 19.4755C15.7566 19.472 15.717 19.439 15.7486 19.4662C15.7393 19.4577 15.7291 19.4493 15.7197 19.4403C15.7102 19.4314 15.6586 19.3699 15.6837 19.4042C15.6661 19.3802 15.6501 19.3549 15.6361 19.3286C15.6314 19.32 15.6274 19.3109 15.6227 19.3022C15.6141 19.2829 15.6144 19.2842 15.6238 19.3059C15.6201 19.2966 15.6167 19.2873 15.6134 19.2779C15.6035 19.2496 15.5953 19.2207 15.5889 19.1914C15.5862 19.1791 15.5754 19.1043 15.5804 19.1515C15.574 19.0862 15.5728 19.0204 15.5766 18.9549C15.5793 18.8982 15.568 18.9873 15.5793 18.9326C15.5841 18.9096 15.5887 18.8866 15.5949 18.8639C15.5995 18.8472 15.6055 18.8311 15.6106 18.8146C15.623 18.7739 15.6 18.8307 15.6179 18.7966C15.6352 18.7618 15.6551 18.7283 15.6776 18.6966C15.6538 18.7289 15.6869 18.6866 15.6905 18.6831C15.7018 18.6707 15.7135 18.659 15.7257 18.6479C15.7287 18.6451 15.7712 18.6106 15.7397 18.6344C15.7581 18.6208 15.7772 18.6083 15.797 18.597C15.8122 18.5882 15.8279 18.5805 15.8436 18.5725C15.8636 18.5632 15.8652 18.5626 15.8485 18.57C15.8571 18.5667 15.8657 18.5635 15.8743 18.5606C15.9503 18.5343 16.0304 18.5214 16.1108 18.5228C16.3511 18.5208 16.3516 18.1476 16.111 18.1501Z" fill="#211715"/>
<path d="M36.1504 33.6317C36.3492 33.5788 36.5462 33.5171 36.739 33.4554C36.8086 33.4378 36.8742 33.4072 36.9324 33.3651C36.9916 33.3118 37.0332 33.2419 37.0518 33.1644C37.1336 32.87 36.9958 32.5639 36.8592 32.2903C36.6888 32.4503 36.4788 32.562 36.251 32.6141C36.0231 32.6662 35.7854 32.6567 35.5624 32.5866C35.5375 32.5795 35.511 32.5799 35.4863 32.5878C35.0198 32.6518 34.7115 32.8645 34.4207 33.2347C34.3476 33.328 34.2817 33.4546 34.3381 33.5585C34.3827 33.6223 34.4498 33.6669 34.5259 33.6834C35.0509 33.8539 35.6079 33.776 36.1504 33.6317Z" fill="#645D5C"/>
<path d="M31.5786 20.7092C31.5305 21.0416 31.4534 22.2859 31.4052 22.6187C31.3954 22.7155 31.373 22.8106 31.3386 22.9016C31.3028 22.9771 31.2585 23.0482 31.2065 23.1135C30.8434 23.6048 30.3668 24.2087 29.9713 24.645C29.9095 24.7134 29.3802 24.7383 29.2541 24.7882C28.9888 24.8976 28.7477 25.0582 28.5446 25.2609C28.2394 25.5555 28.1522 26.0259 28.1296 26.4644C28.1057 26.9281 30.0229 26.2137 30.8147 25.5314C31.2999 25.1136 32.3865 23.9928 32.5668 23.4318C32.7955 22.7204 32.7129 22.0397 32.7633 21.294C32.7633 20.5207 31.5784 19.9864 31.5784 20.7094" fill="white"/>
<path d="M31.7599 32.9999C31.7599 31.5785 31.733 27.4058 31.733 26.0795H22.1401C22.1401 27.4058 22.1942 31.6139 22.1942 33.0355C24.2767 33.0355 28.6557 32.9999 31.7599 32.9999Z" fill="#F6C385"/>
<path d="M25.9165 26.0857V27.1104C26.0218 27.1104 26.5899 27.1144 26.7495 27.1144C26.8801 27.1144 27.6583 27.1178 27.7802 27.1178C27.7802 27.1158 27.9807 27.1138 27.9807 27.1117C27.9807 26.9998 27.9834 26.6984 27.9834 26.6173C27.9834 26.427 27.9815 26.3682 27.9815 26.0918" fill="#89705D"/>
<path d="M32.4026 22.3081C32.1904 22.0289 32.011 21.7262 31.8682 21.4059C31.7655 21.2007 31.227 19.8269 31.188 19.6815C31.0367 19.1167 31.0346 18.9246 31.0347 17.9835C31.2053 18.103 31.3841 18.2102 31.5698 18.3046C31.6266 18.335 31.6785 18.3625 31.7209 18.3857C32.1221 18.044 32.4481 17.079 32.4243 16.8782L32.4211 16.8518L32.4243 16.8524C32.6111 16.9059 32.7899 16.9841 32.9561 17.0849C33.1258 17.1771 33.2838 17.2894 33.4267 17.4193C33.7774 17.7447 34.0889 18.11 34.3546 18.5078C34.959 19.3676 35.8221 20.7522 36.3748 21.9596C36.5614 22.2395 36.6761 22.5647 36.5894 22.7401C36.0421 22.9556 34.3894 23.5573 33.7607 23.6673L32.4026 22.3081Z" fill="#6DBF6B"/>
<path d="M35.5283 32.5819C35.0557 31.8195 34.2139 30.0316 33.7412 29.2692C33.5452 28.953 33.3453 28.6271 33.2794 28.261C33.2172 27.9168 33.2785 27.5636 33.3397 27.2191C33.4983 26.3288 33.6027 24.5577 33.7608 23.6674C34.3895 23.5574 36.0422 22.9557 36.5895 22.7402C37.2968 24.0603 36.3353 25.9117 35.8519 27.2379C35.7572 27.4977 35.6666 27.7717 35.7056 28.0454C35.7413 28.2959 35.9548 28.6852 36.0787 28.9054C36.5592 29.7558 36.8053 31.471 36.8718 32.4458" fill="white"/>
<path d="M31.9466 32.9999C31.9466 32.137 31.9415 31.274 31.9372 30.4108C31.9323 29.3752 31.9275 28.3396 31.9227 27.3041C31.921 26.896 31.9199 26.4879 31.9193 26.0797C31.9186 26.0304 31.8987 25.9834 31.8639 25.9486C31.8291 25.9137 31.782 25.8938 31.7327 25.8931H22.1402C22.0909 25.8939 22.0439 25.9137 22.0091 25.9486C21.9742 25.9834 21.9543 26.0305 21.9536 26.0797C21.9536 26.9213 21.9639 27.7629 21.9723 28.6045C21.9822 29.6552 21.992 30.7058 22.0015 31.7563C22.0048 32.1828 22.0081 32.6092 22.0081 33.0357C22.0088 33.0849 22.0287 33.132 22.0635 33.1668C22.0984 33.2016 22.1454 33.2215 22.1947 33.2222C23.2862 33.2222 24.3769 33.2158 25.468 33.2102C26.834 33.2033 28.2001 33.1971 29.5662 33.1916C30.2976 33.1889 31.029 33.1874 31.7604 33.1871C32.0006 33.1871 32.0011 32.8139 31.7604 32.8139C30.4263 32.8139 29.0922 32.8179 27.7581 32.8259C26.4599 32.8322 25.1617 32.8385 23.8635 32.8451C23.3073 32.8474 22.7511 32.8488 22.1949 32.8494L22.3815 33.036C22.3815 32.1718 22.3714 31.3075 22.3633 30.4433C22.3535 29.3991 22.3438 28.3548 22.3342 27.3105C22.3309 26.9 22.3275 26.4902 22.3274 26.0801L22.1409 26.2667H31.733L31.5464 26.0801C31.5464 26.9205 31.5516 27.7609 31.5558 28.6013C31.5607 29.6433 31.5655 30.6853 31.5703 31.7272C31.572 32.1517 31.5731 32.5761 31.5736 33.0005C31.5736 33.2406 31.9468 33.2411 31.9468 33.0005L31.9466 32.9999Z" fill="#211715"/>
<path d="M25.7306 26.0857V27.1104C25.7313 27.1597 25.7512 27.2067 25.786 27.2416C25.8208 27.2764 25.8679 27.2963 25.9171 27.297C26.5049 27.297 27.0927 27.3021 27.6799 27.3041C27.7306 27.3041 27.7804 27.2984 27.8305 27.2977C27.7422 27.2989 27.8629 27.3018 27.8912 27.3012C27.938 27.3015 27.9847 27.2984 28.0311 27.2919C28.0704 27.2809 28.105 27.2574 28.1297 27.2249C28.1545 27.1925 28.1679 27.1528 28.1681 27.112C28.1681 26.7722 28.1683 26.4323 28.1689 26.0923C28.1689 25.8523 27.7957 25.8518 27.7957 26.0923C27.7957 26.4322 27.7954 26.7721 27.7949 27.112L27.9318 26.9321C28.013 26.9188 27.9214 26.9277 27.8913 26.9283C27.8555 26.9291 27.8192 26.9283 27.7836 26.9311C27.6788 26.9397 27.8105 26.9359 27.7578 26.9311C27.7392 26.9295 27.7198 26.9311 27.701 26.9311C27.5674 26.9307 27.4337 26.9303 27.2999 26.9296L26.2314 26.9251C26.1266 26.9251 26.0218 26.924 25.9171 26.924L26.1036 27.1106V26.0857C26.1036 25.8455 25.7306 25.8452 25.7306 26.0857Z" fill="#211715"/>
<path d="M30.8479 18.01C30.8479 18.6184 30.8328 19.2452 31.04 19.8273C31.2235 20.3426 31.4281 20.8535 31.6427 21.3562C31.8048 21.7428 32.0158 22.107 32.2705 22.44C32.3056 22.4748 32.353 22.4943 32.4024 22.4943C32.4518 22.4943 32.4993 22.4748 32.5344 22.44C32.5682 22.4044 32.5871 22.3572 32.5871 22.3081C32.5871 22.2589 32.5682 22.2117 32.5344 22.1761C32.3144 21.8821 32.1313 21.5624 31.989 21.2239C31.9517 21.1386 31.9177 21.0551 31.8719 20.9423C31.8165 20.8061 31.7619 20.6695 31.7081 20.5327C31.5314 20.0849 31.3395 19.6429 31.2632 19.1648C31.2062 18.8082 31.2211 18.3883 31.2211 18.01C31.2211 17.7699 30.8479 17.7695 30.8479 18.01Z" fill="#211715"/>
<path d="M36.5399 22.5603C36.0827 22.7397 35.6204 22.9055 35.1559 23.0634C34.6844 23.2243 34.2029 23.3993 33.7112 23.4874C33.6636 23.5009 33.6233 23.5325 33.5988 23.5755C33.5744 23.6184 33.5678 23.6693 33.5806 23.717C33.5946 23.7642 33.6263 23.8041 33.6691 23.8285C33.7118 23.8528 33.7623 23.8597 33.8101 23.8477C34.3019 23.7595 34.7833 23.5845 35.2548 23.4235C35.7192 23.2649 36.182 23.0998 36.6388 22.9204C36.6857 22.9061 36.7255 22.8743 36.7497 22.8316C36.774 22.789 36.7811 22.7386 36.7694 22.6909C36.756 22.6433 36.7244 22.6029 36.6814 22.5785C36.6385 22.554 36.5876 22.5475 36.5399 22.5603Z" fill="#211715"/>
<path d="M33.8895 21.4359C33.8637 21.949 33.8149 22.6186 33.7434 23.1276C33.7291 23.2899 33.6872 23.4486 33.6195 23.5969C33.541 23.7298 33.4422 23.8496 33.3266 23.9519C32.5778 24.685 31.8052 25.4003 31.1575 26.2241C31.1049 26.4228 31.0828 26.6408 30.9685 26.7522C30.5624 27.1483 30.0207 27.4799 29.4594 27.3976C29.3469 27.3881 29.2409 27.3408 29.1586 27.2635C29.119 27.2238 29.0947 27.1714 29.09 27.1155C29.0852 27.0596 29.1003 27.0038 29.1326 26.958C28.9604 27.0132 28.7079 26.9487 28.71 26.7679C28.7112 26.6598 28.8065 26.5798 28.8935 26.516L29.4339 26.1164C29.3056 26.2439 29.0566 26.1326 29.0204 25.9554C28.9842 25.7781 29.11 25.5998 29.2703 25.5159C29.4369 25.4438 29.617 25.4082 29.7984 25.4116C29.9654 25.403 30.1623 25.4802 30.456 25.3424C30.9277 24.6004 31.4436 23.8874 32.0007 23.2072C32.1305 23.0389 32.2421 22.8572 32.3333 22.6652C32.4943 22.3227 32.4298 21.8145 32.4145 21.4363" fill="white"/>
<path d="M33.7031 21.4359C33.6761 21.9652 33.6402 22.4957 33.5713 23.0213C33.5368 23.2846 33.4909 23.5118 33.3039 23.7103C33.1013 23.9249 32.8812 24.1249 32.6695 24.3308C32.258 24.7312 31.8494 25.1355 31.4678 25.5648C31.3726 25.6721 31.2793 25.7809 31.188 25.8914C31.1422 25.9466 31.0971 26.0023 31.0525 26.0585C31.0003 26.1254 30.9653 26.2041 30.9507 26.2877C30.9369 26.3907 30.9073 26.491 30.863 26.5851C30.7855 26.6858 30.6915 26.7727 30.5851 26.842C30.3622 27.0246 30.0985 27.1506 29.8164 27.2092C29.7474 27.2212 29.1622 27.235 29.294 27.0524C29.3923 26.9161 29.2301 26.7372 29.0832 26.7783C29.0285 26.7989 28.9679 26.7974 28.9143 26.774C28.9236 26.7801 28.8945 26.7634 28.8968 26.7686C28.894 26.7624 28.9355 26.7212 28.948 26.7101C29.1252 26.5509 29.3364 26.4192 29.5283 26.2773L29.3022 25.9843C29.2853 25.9989 29.2348 25.9626 29.224 25.9508C29.2083 25.9273 29.2007 25.8993 29.2024 25.8711C29.2041 25.8429 29.2149 25.8161 29.2333 25.7946C29.339 25.6225 29.5798 25.6097 29.7603 25.6001C29.9343 25.5908 30.1025 25.6249 30.2766 25.5947C30.3975 25.5844 30.512 25.5355 30.6031 25.4553C30.6771 25.3549 30.7448 25.2499 30.8058 25.1411C31.0722 24.7333 31.3577 24.3388 31.6534 23.9515C31.9377 23.5795 32.2624 23.2288 32.4721 22.8067C32.685 22.378 32.6218 21.8974 32.6017 21.4361C32.5914 21.1969 32.2181 21.1956 32.2286 21.4361C32.2427 21.7611 32.2939 22.1056 32.2183 22.4262C32.1402 22.7564 31.8972 23.0386 31.6923 23.2983C31.191 23.9219 30.7247 24.5729 30.2955 25.2482L30.3624 25.1812C30.1533 25.2736 29.9402 25.2151 29.7214 25.2292C29.4532 25.2466 29.163 25.2959 28.98 25.5131C28.8178 25.7053 28.7627 25.9935 28.9426 26.1948C28.98 26.2394 29.0258 26.2763 29.0775 26.3031C29.1291 26.33 29.1856 26.3464 29.2436 26.3514C29.3016 26.3564 29.3601 26.3498 29.4155 26.3322C29.471 26.3145 29.5224 26.286 29.5669 26.2483C29.7255 26.1117 29.5121 25.8285 29.3407 25.9553C29.1728 26.0797 29.0046 26.2041 28.8363 26.3284C28.6955 26.433 28.5437 26.5477 28.5275 26.737C28.4972 27.0884 28.9031 27.217 29.1832 27.1386L28.9725 26.8645C28.7758 27.137 29.0076 27.4569 29.2791 27.5476C29.5659 27.6277 29.871 27.6135 30.1491 27.5069C30.4364 27.3999 30.7017 27.2413 30.932 27.039C31.0495 26.9538 31.1461 26.8431 31.2145 26.7151C31.2684 26.572 31.3099 26.4246 31.3384 26.2743L31.2905 26.3567C31.7995 25.7344 32.3487 25.1461 32.9344 24.5954C33.0786 24.4551 33.2228 24.3149 33.3671 24.1748C33.5074 24.0502 33.6334 23.9103 33.7428 23.7579C33.941 23.4525 33.9481 23.0343 33.9845 22.6824C34.0272 22.2682 34.0559 21.8521 34.0771 21.4365C34.0894 21.1965 33.7161 21.1972 33.7039 21.4365L33.7031 21.4359Z" fill="#211715"/>
<path d="M31.3985 20.6596C31.3347 21.1107 31.3136 21.5686 31.2763 22.0223C31.267 22.1321 31.2576 22.242 31.2477 22.3518C31.2436 22.3965 31.2391 22.4412 31.2344 22.4859C31.2322 22.5064 31.2297 22.5267 31.2276 22.5471C31.2268 22.555 31.2257 22.5627 31.2247 22.5705C31.2213 22.5991 31.2295 22.5375 31.2259 22.5627C31.2181 22.648 31.2004 22.732 31.1734 22.8133C31.1339 22.8983 31.0833 22.9776 31.0229 23.0493C30.9181 23.1908 30.8118 23.331 30.7038 23.47C30.451 23.7952 30.1913 24.1154 29.9187 24.4243C29.7601 24.6037 30.0232 24.8687 30.1825 24.6881C30.4278 24.4103 30.6624 24.1232 30.8915 23.8317C31.0097 23.681 31.1265 23.5291 31.242 23.376C31.3678 23.2329 31.4684 23.0694 31.5398 22.8927C31.5959 22.6685 31.6276 22.439 31.6341 22.208C31.6566 21.9495 31.6762 21.6907 31.6971 21.4321C31.7081 21.2954 31.7192 21.1587 31.7317 21.0222C31.7369 20.9652 31.7422 20.9082 31.7483 20.8513C31.7504 20.8305 31.7528 20.8098 31.7551 20.7891C31.7563 20.7784 31.7576 20.7679 31.7589 20.7574C31.7624 20.7284 31.7526 20.8019 31.7589 20.7588C31.7704 20.7111 31.7633 20.6608 31.739 20.6181C31.7148 20.5755 31.6752 20.5437 31.6283 20.5293C31.5806 20.5165 31.5297 20.523 31.4868 20.5475C31.4438 20.5719 31.4122 20.6123 31.3988 20.6599L31.3985 20.6596Z" fill="#211715"/>
<path d="M30.0166 24.458C29.6513 24.4577 29.2914 24.5468 28.9685 24.7176C28.6455 24.8883 28.3692 25.1355 28.1637 25.4376C28.1513 25.4587 28.1432 25.4821 28.1399 25.5064C28.1366 25.5307 28.1381 25.5554 28.1443 25.5791C28.1505 25.6028 28.1613 25.625 28.1761 25.6446C28.191 25.6641 28.2095 25.6805 28.2306 25.6929C28.2518 25.7052 28.2752 25.7133 28.2995 25.7166C28.3237 25.72 28.3484 25.7185 28.3721 25.7123C28.3959 25.7061 28.4181 25.6952 28.4376 25.6804C28.4571 25.6656 28.4736 25.6471 28.4859 25.6259C28.6575 25.3793 28.8865 25.1782 29.1532 25.0398C29.4199 24.9014 29.7162 24.83 30.0166 24.8316C30.2568 24.8337 30.257 24.4605 30.0166 24.4584V24.458Z" fill="#211715"/>
<path d="M36.4288 22.8344C36.7319 23.4121 36.6856 24.0911 36.5446 24.708C36.3892 25.3872 36.1221 26.0343 35.867 26.6804C35.7348 27.0152 35.5758 27.36 35.526 27.7187C35.4749 28.0868 35.6038 28.4023 35.7686 28.7242C35.9043 28.9645 36.0247 29.2132 36.129 29.4688C36.2357 29.7697 36.3229 30.0771 36.3903 30.3891C36.5405 31.0663 36.6393 31.7538 36.6859 32.4459C36.7024 32.6841 37.0757 32.686 37.0591 32.4459C37.0156 31.8193 36.9328 31.1961 36.8111 30.58C36.692 29.9773 36.5415 29.3526 36.2405 28.8117C36.0986 28.5565 35.8995 28.2595 35.8842 27.9594C35.8656 27.5902 36.0569 27.2123 36.1892 26.8753C36.4467 26.2191 36.7219 25.5652 36.8877 24.8781C37.0662 24.1382 37.1148 23.3398 36.7509 22.6464C36.6389 22.4337 36.317 22.6221 36.4287 22.8348L36.4288 22.8344Z" fill="#211715"/>
<path d="M33.4666 24.4515C33.394 25.0926 33.3396 25.7356 33.2678 26.3768C33.2387 26.6374 33.2073 26.898 33.1624 27.1565C33.0995 27.5179 33.0369 27.8795 33.0895 28.2463C33.1728 28.8271 33.5634 29.3106 33.8395 29.8126C34.0964 30.2791 34.3371 30.7554 34.5816 31.2288C34.833 31.716 35.0792 32.2095 35.3674 32.6764C35.4933 32.8803 35.8163 32.6931 35.6896 32.488C35.1623 31.6338 34.7463 30.7112 34.2716 29.8275C34.1672 29.6329 34.0612 29.439 33.9475 29.2497C33.7851 28.9791 33.6038 28.7145 33.509 28.4111C33.4047 28.0789 33.4396 27.7361 33.497 27.3985C33.5437 27.1237 33.5853 26.8488 33.6183 26.5719C33.7023 25.8663 33.7597 25.1577 33.8396 24.4515C33.8393 24.4021 33.8196 24.3549 33.7846 24.3199C33.7497 24.285 33.7024 24.2652 33.653 24.265C33.6039 24.2661 33.5571 24.2861 33.5223 24.3208C33.4876 24.3556 33.4675 24.4024 33.4664 24.4515H33.4666Z" fill="#211715"/>
<path d="M31.5698 18.3049C31.3841 18.2106 31.2053 18.1033 31.0347 17.9838C31.3929 17.6333 31.8148 16.9259 32.0901 16.507C32.2688 16.6491 32.4175 16.8217 32.4243 16.8785C32.4481 17.0794 32.1224 18.0447 31.7209 18.3861C31.6785 18.3629 31.627 18.3353 31.5698 18.3049Z" fill="#FFDA71"/>
<path d="M31.6642 18.1438C31.4783 18.0499 31.2994 17.9426 31.1291 17.8227L31.1664 18.1157C31.6065 17.6798 31.9138 17.1154 32.2511 16.6012L31.958 16.639C32.0561 16.7135 32.1448 16.7995 32.2223 16.8952C32.229 16.9086 32.2372 16.9211 32.2468 16.9326C32.2561 16.9389 32.2357 16.8952 32.2384 16.8898C32.2352 16.9095 32.2343 16.9295 32.2357 16.9494C32.2349 16.9619 32.2445 16.9079 32.2349 16.9506C32.2312 16.9675 32.2287 16.9845 32.225 17.0014C32.2179 17.0348 32.2096 17.0679 32.2008 17.1009C32.1795 17.1799 32.1541 17.258 32.127 17.335C32.0105 17.6634 31.8491 18.0271 31.5889 18.2539L31.815 18.2247C31.7647 18.1974 31.7142 18.1705 31.6638 18.1435C31.452 18.0305 31.2634 18.3524 31.4754 18.4658C31.5259 18.4927 31.5764 18.5196 31.6266 18.5469C31.6626 18.5667 31.7038 18.5745 31.7445 18.5692C31.7851 18.564 31.8231 18.5459 31.8528 18.5177C32.1752 18.2366 32.3659 17.7886 32.5014 17.3927C32.5598 17.2417 32.5968 17.0832 32.6113 16.9219C32.6213 16.6956 32.3796 16.5027 32.2219 16.3748C32.2014 16.3552 32.1768 16.3405 32.1499 16.3317C32.123 16.3229 32.0944 16.3202 32.0663 16.3238C32.0383 16.3275 32.0113 16.3373 31.9876 16.3526C31.9638 16.368 31.9437 16.3885 31.9288 16.4125C31.6088 16.9005 31.3202 17.4378 30.9026 17.8516C30.8829 17.872 30.8681 17.8966 30.8592 17.9235C30.8503 17.9504 30.8475 17.979 30.8511 18.0071C30.8547 18.0352 30.8645 18.0621 30.8799 18.0859C30.8953 18.1097 30.9158 18.1298 30.9399 18.1446C31.1103 18.2645 31.2891 18.3718 31.475 18.4658C31.6872 18.5795 31.8759 18.2574 31.6642 18.1438Z" fill="#211715"/>
<path d="M33.861 18.6967C33.6659 18.5101 33.3666 18.352 32.9112 18.3255C32.5434 18.3039 32.1962 18.6636 32.1286 18.9424C31.919 19.8081 32.0924 20.58 32.2453 21.4435C32.6403 21.4435 33.4619 21.4231 33.9485 21.4149C34.0146 21.4139 34.078 21.3893 34.1274 21.3454C34.1768 21.3016 34.2087 21.2414 34.2175 21.176C34.2793 20.6387 34.2806 20.0962 34.2213 19.5586C34.211 19.4438 34.1177 18.9427 33.861 18.6967Z" fill="#6DBF6B"/>
<path d="M33.9928 18.5647C33.5864 18.1837 32.8475 17.9614 32.3644 18.3186C32.243 18.4079 32.1404 18.5203 32.0625 18.6494C31.9846 18.7784 31.933 18.9216 31.9106 19.0706C31.8431 19.4481 31.8282 19.8332 31.8663 20.2149C31.9059 20.6446 31.9899 21.0686 32.0654 21.493C32.0764 21.5323 32.0999 21.5669 32.1324 21.5916C32.1648 21.6163 32.2044 21.6298 32.2452 21.63C32.5475 21.63 32.8498 21.623 33.152 21.617C33.3209 21.6137 33.4898 21.6104 33.6587 21.6068C33.8129 21.6037 33.9893 21.624 34.1327 21.5593C34.2106 21.5224 34.2772 21.4653 34.3254 21.3938C34.3737 21.3223 34.4018 21.2392 34.4069 21.1531C34.4343 20.9358 34.4491 20.7171 34.4512 20.4981C34.4634 20.1393 34.4426 19.7802 34.3891 19.4252C34.3351 19.1173 34.2173 18.7893 33.9928 18.5646C33.8229 18.3944 33.559 18.6579 33.729 18.8285C33.8928 18.9925 33.9677 19.2322 34.0154 19.4536C34.0233 19.4909 34.0304 19.5276 34.0359 19.5651C34.0374 19.5749 34.0328 19.5231 34.0359 19.5782C34.0392 19.626 34.0443 19.6737 34.0481 19.7213C34.0628 19.906 34.0731 20.0911 34.0767 20.2764C34.0802 20.4617 34.0767 20.6489 34.0643 20.8346C34.0618 20.9336 34.0524 21.0322 34.0363 21.1299C34.027 21.1755 34.0137 21.2106 33.9655 21.2258C33.9165 21.2335 33.8666 21.235 33.8172 21.2301L33.6085 21.2342L33.1514 21.2435C32.8492 21.2496 32.5469 21.2563 32.2447 21.2566L32.4246 21.3935C32.2862 20.6149 32.0777 19.7484 32.3145 18.9669C32.3882 18.7236 32.6524 18.5025 32.9105 18.5117C33.2122 18.5164 33.5022 18.6287 33.7284 18.8283C33.9041 18.9928 34.1685 18.7294 33.9928 18.5647Z" fill="#211715"/>
<path d="M36.7508 22.8344C36.8458 22.615 36.7946 22.3889 36.7035 22.1762C36.653 22.0698 36.5969 21.9661 36.5356 21.8655C36.4737 21.7536 36.4262 21.6313 36.3697 21.5164C36.1379 21.0446 35.8836 20.5835 35.6168 20.131C35.3651 19.7035 35.1018 19.2832 34.8269 18.8699C34.5601 18.4525 34.2651 18.0537 33.944 17.6763C33.7423 17.442 33.5131 17.2329 33.2614 17.0533C33.0244 16.879 32.7572 16.75 32.4733 16.6728C32.2393 16.6208 32.1394 16.9807 32.3741 17.0327C32.5994 17.0954 32.8125 17.1958 33.0043 17.3296C33.2165 17.4722 33.4102 17.6406 33.5808 17.8309C33.8889 18.1747 34.1692 18.5424 34.4191 18.9306C34.9474 19.7089 35.431 20.5165 35.8677 21.3496C35.9882 21.5811 36.0887 21.8254 36.2129 22.0539C36.2836 22.1652 36.3439 22.2828 36.3932 22.4051C36.414 22.4681 36.4556 22.5817 36.4278 22.646C36.4043 22.6891 36.3982 22.7395 36.4106 22.7869C36.4231 22.8344 36.4531 22.8753 36.4947 22.9014C36.5375 22.926 36.5882 22.9328 36.636 22.9202C36.6838 22.9077 36.7247 22.8769 36.7499 22.8344H36.7508Z" fill="#211715"/>
<path d="M36.1999 33.8118C36.3977 33.7585 36.5939 33.6997 36.7886 33.6354C36.8743 33.6156 36.9546 33.5774 37.024 33.5234C37.0935 33.4695 37.1503 33.4011 37.1906 33.3229C37.3638 32.9456 37.1906 32.5392 37.0204 32.1962C37.0057 32.1719 36.9857 32.1512 36.9619 32.1357C36.938 32.1202 36.911 32.1103 36.8829 32.1067C36.8547 32.1031 36.826 32.1059 36.7991 32.115C36.7722 32.124 36.7476 32.139 36.7273 32.1589C36.6101 32.2666 36.4718 32.3487 36.3212 32.4001C36.1705 32.4515 36.0109 32.471 35.8523 32.4574C35.7765 32.4488 35.7016 32.4336 35.6284 32.4119C35.5415 32.3944 35.4518 32.3968 35.366 32.4189C35.2097 32.4469 35.0582 32.4967 34.9159 32.567C34.6173 32.7143 34.368 32.9453 34.1986 33.2319C34.1105 33.3965 34.0994 33.605 34.2464 33.7407C34.3857 33.8697 34.6094 33.9092 34.7903 33.9366C35.2648 34.0084 35.7397 33.9325 36.1997 33.8118C36.4318 33.7509 36.3334 33.3908 36.1006 33.4519C35.6611 33.5672 35.1928 33.6514 34.7421 33.5493C34.6856 33.5374 34.6299 33.5222 34.5753 33.5036C34.5584 33.4993 34.5421 33.4931 34.5267 33.485C34.4986 33.4624 34.4911 33.4599 34.5044 33.4775C34.4882 33.4184 34.5857 33.3245 34.6199 33.2845C34.723 33.1578 34.8451 33.0476 34.9817 32.958C35.1195 32.8733 35.2718 32.8149 35.4308 32.7855C35.4538 32.7811 35.4769 32.777 35.5001 32.7733C35.5437 32.7694 35.5478 32.7673 35.5125 32.767C35.5569 32.7728 35.6029 32.7936 35.6473 32.8027C35.7434 32.8227 35.8411 32.8334 35.9392 32.8348C36.3296 32.8372 36.7062 32.6897 36.9911 32.4226L36.6979 32.3853C36.8062 32.6039 36.9744 32.9204 36.8537 33.1662C36.8037 33.2682 36.6625 33.285 36.5645 33.3155C36.4107 33.3639 36.2562 33.4102 36.1004 33.4522C35.8691 33.5143 35.9673 33.8743 36.1999 33.8118Z" fill="#211715"/>
<path d="M21.4543 24.6228L21.6502 25.1553C21.6643 25.2016 21.6948 25.2412 21.7359 25.2668C21.7679 25.2855 21.8048 25.2943 21.8419 25.2919C21.8789 25.2896 21.9144 25.2763 21.9438 25.2536C21.9733 25.231 21.9953 25.2002 22.0071 25.165C22.0189 25.1298 22.0199 25.0919 22.01 25.0561L21.8141 24.5236C21.7999 24.4773 21.7694 24.4377 21.7284 24.4121C21.6848 24.3872 21.6331 24.3805 21.5846 24.3934C21.5371 24.407 21.4969 24.4387 21.4725 24.4816C21.448 24.5245 21.4414 24.5753 21.454 24.623L21.4543 24.6228Z" fill="#211715"/>
<path d="M20.6927 25.6726C20.8829 25.7446 21.072 25.8197 21.2599 25.898C21.2839 25.9046 21.309 25.9064 21.3337 25.9032C21.3584 25.9 21.3822 25.8919 21.4037 25.8793C21.4248 25.867 21.4433 25.8506 21.4582 25.831C21.473 25.8115 21.4838 25.7893 21.49 25.7656C21.4962 25.7419 21.4977 25.7172 21.4944 25.6929C21.4911 25.6686 21.483 25.6452 21.4706 25.6241L21.4414 25.5863C21.4186 25.5634 21.3903 25.5469 21.3592 25.5383C21.1714 25.46 20.9823 25.3848 20.7919 25.3129C20.7679 25.3064 20.7428 25.3047 20.7181 25.3079C20.6934 25.3111 20.6696 25.3191 20.6481 25.3316C20.6054 25.3566 20.5743 25.3975 20.5618 25.4454C20.5492 25.4932 20.5562 25.5441 20.5812 25.5868C20.6075 25.6273 20.6468 25.6575 20.6927 25.6726Z" fill="#211715"/>
<path d="M31.4417 14.1363L28.1858 15.8045C28.0319 15.8951 27.8632 15.9578 27.6875 15.9896C27.6383 16.0002 27.587 15.9914 27.5441 15.9651C27.4508 15.8941 27.5183 15.7474 27.5907 15.6557C27.7379 15.4697 27.8877 15.2857 28.0401 15.1038C27.8203 14.4645 28.1714 14.0223 28.4496 13.7076C28.6511 13.4796 29.0383 13.294 29.4006 13.1861C30.3743 12.8964 31.0835 13.278 31.5008 13.9661C31.5122 13.9808 31.5201 13.9978 31.5239 14.016C31.5277 14.0341 31.5274 14.0529 31.5229 14.0709C31.5081 14.0977 31.4842 14.1183 31.4555 14.129L31.4417 14.1363Z" fill="#6DBF6B"/>
<path d="M31.3474 13.9751L29.2456 15.0521L28.1948 15.5906C28.0458 15.6794 27.8858 15.7484 27.719 15.7959C27.6883 15.7976 27.6578 15.8009 27.6274 15.8058C27.6188 15.8157 27.6973 15.8672 27.6859 15.8711C27.687 15.8711 27.6927 15.8415 27.6945 15.8394C27.745 15.7844 27.7867 15.7078 27.8345 15.6488C27.9492 15.5059 28.0854 15.369 28.1875 15.2172C28.2484 15.1265 28.2155 15.0506 28.1908 14.9542C28.1706 14.8784 28.1598 14.8005 28.1587 14.7221C28.1682 14.4626 28.2651 14.2139 28.4338 14.0165C28.6036 13.7927 28.8274 13.6157 29.0841 13.5019C29.3679 13.3659 29.6763 13.289 29.9907 13.2757C30.2712 13.2666 30.5483 13.3391 30.7885 13.4844C30.9044 13.5568 31.0102 13.6443 31.103 13.7447C31.1477 13.7917 31.1896 13.8413 31.2286 13.8931C31.2575 13.9319 31.3435 14.0243 31.3372 14.0712L31.3627 13.9771C31.3647 13.9647 31.3599 13.9641 31.3481 13.9754C31.1343 14.0849 31.3229 14.4071 31.5365 14.2977C31.9706 14.0752 31.4598 13.5504 31.2388 13.357C30.9657 13.1158 30.6262 12.9625 30.2646 12.9172C29.8429 12.8772 29.4181 12.9471 29.0315 13.1203C28.8176 13.2037 28.6173 13.3188 28.4375 13.4616C28.3059 13.5785 28.1891 13.711 28.0896 13.8563C27.9486 14.0374 27.8539 14.2502 27.814 14.4762C27.774 14.7022 27.7899 14.9346 27.8603 15.1531L27.9084 14.9715C27.7847 15.1194 27.6626 15.2686 27.5421 15.4193C27.4395 15.5481 27.3154 15.6845 27.313 15.86C27.3115 15.9415 27.3419 16.0204 27.3979 16.0797C27.4539 16.139 27.5309 16.174 27.6124 16.1772C27.7944 16.175 27.973 16.1276 28.1322 16.0394C28.496 15.8694 28.8499 15.6738 29.2073 15.4907L30.2994 14.9309L31.5357 14.2975C31.7496 14.1878 31.5614 13.8657 31.3474 13.9751Z" fill="#211715"/>
</svg>
