<svg width="40" height="40" viewBox="0 0 40 40" fill="none" xmlns="http://www.w3.org/2000/svg">
<g clip-path="url(#clip0_71_58)">
<path d="M9.17578 18.552H7.17578V16.552C7.17578 16.2337 7.30221 15.9285 7.52725 15.7035C7.7523 15.4784 8.05752 15.352 8.37578 15.352H18.3758C18.588 15.352 18.7914 15.4363 18.9415 15.5863C19.0915 15.7363 19.1758 15.9398 19.1758 16.152V17.752C19.1758 17.9642 19.0915 18.1677 18.9415 18.3177C18.7914 18.4677 18.588 18.552 18.3758 18.552" fill="#70E8FF"/>
<path d="M18.352 18.952V18.152C18.458 18.152 18.5598 18.1099 18.6348 18.0348C18.7098 17.9598 18.752 17.8581 18.752 17.752V16.152C18.752 16.0459 18.7098 15.9442 18.6348 15.8692C18.5598 15.7941 18.458 15.752 18.352 15.752H8.35195C8.13978 15.752 7.9363 15.8363 7.78627 15.9863C7.63624 16.1363 7.55195 16.3398 7.55195 16.552V18.152H9.15195V18.952H7.15195C7.04587 18.952 6.94413 18.9099 6.86911 18.8348C6.7941 18.7598 6.75195 18.6581 6.75195 18.552V16.552C6.75195 16.1276 6.92052 15.7207 7.22058 15.4206C7.52064 15.1206 7.92761 14.952 8.35195 14.952H18.352C18.6702 14.952 18.9754 15.0784 19.2005 15.3035C19.4255 15.5285 19.552 15.8337 19.552 16.152V17.752C19.552 18.0703 19.4255 18.3755 19.2005 18.6005C18.9754 18.8256 18.6702 18.952 18.352 18.952Z" fill="white"/>
<path d="M14.1518 8.21201V12.212L12.3518 10.544L10.5518 12.212V8.21201H14.1518Z" fill="#9AE3F0"/>
<path d="M30.7521 14.148C29.4561 14.148 27.9521 13.1 27.9521 11.748C27.9521 10.396 29.4561 9.34801 30.7521 9.34801C30.8582 9.34801 30.96 9.39015 31.035 9.46516C31.11 9.54018 31.1521 9.64192 31.1521 9.74801V13.748C31.1521 13.8541 31.11 13.9558 31.035 14.0308C30.96 14.1059 30.8582 14.148 30.7521 14.148ZM30.3521 10.192C29.5521 10.364 28.7521 10.992 28.7521 11.748C28.7521 12.504 29.5521 13.132 30.3521 13.304V10.192Z" fill="white"/>
<path d="M17.5519 15.648H16.7519V8.248H7.95186V15.648H7.15186V7.848C7.15186 7.74191 7.194 7.64017 7.26901 7.56516C7.34403 7.49014 7.44577 7.448 7.55186 7.448H17.1519C17.2579 7.448 17.3597 7.49014 17.4347 7.56516C17.5097 7.64017 17.5519 7.74191 17.5519 7.848V15.648Z" fill="white"/>
<path d="M18.352 18.952V18.152C18.458 18.152 18.5598 18.1099 18.6348 18.0348C18.7098 17.9598 18.752 17.8581 18.752 17.752V16.152C18.752 16.0459 18.7098 15.9442 18.6348 15.8692C18.5598 15.7941 18.458 15.752 18.352 15.752H8.35195C8.13978 15.752 7.9363 15.8363 7.78627 15.9863C7.63624 16.1363 7.55195 16.3398 7.55195 16.552V18.152H9.15195V18.952H7.15195C7.04587 18.952 6.94413 18.9099 6.86911 18.8348C6.7941 18.7598 6.75195 18.6581 6.75195 18.552V16.552C6.75195 16.1276 6.92052 15.7207 7.22058 15.4206C7.52064 15.1206 7.92761 14.952 8.35195 14.952H18.352C18.6702 14.952 18.9754 15.0784 19.2005 15.3035C19.4255 15.5285 19.552 15.8337 19.552 16.152V17.752C19.552 18.0703 19.4255 18.3755 19.2005 18.6005C18.9754 18.8256 18.6702 18.952 18.352 18.952Z" fill="white"/>
<path d="M28.1056 12.7559L27.4053 13.1425L31.8205 21.1407L32.5209 20.7541L28.1056 12.7559Z" fill="white"/>
<path d="M29.1521 28.152H12.3521V28.952H29.1521V28.152Z" fill="white"/>
<path d="M12.3561 26.152H12.1841V26.952H12.3561V26.152Z" fill="white"/>
<path d="M3.71987 26.952H1.55187C1.49019 26.9538 1.42893 26.9413 1.37288 26.9155C1.31683 26.8897 1.26751 26.8513 1.22877 26.8033C1.19004 26.7552 1.16294 26.6989 1.1496 26.6387C1.13626 26.5784 1.13703 26.5159 1.15187 26.456L1.79987 23.904C2.2118 22.2608 3.16096 20.8022 4.4966 19.7601C5.83224 18.718 7.47777 18.152 9.17187 18.152H18.3719C18.4306 18.1511 18.4889 18.1633 18.5424 18.1875C18.596 18.2117 18.6436 18.2474 18.6818 18.2921C18.72 18.3368 18.7478 18.3893 18.7634 18.446C18.779 18.5027 18.7819 18.5621 18.7719 18.62L17.8559 23.952C17.8265 24.1255 17.8357 24.3033 17.8827 24.4728C17.9297 24.6424 18.0135 24.7995 18.128 24.9331C18.2425 25.0667 18.3849 25.1734 18.5453 25.2458C18.7056 25.3182 18.8799 25.3545 19.0559 25.352H23.3839C23.6386 25.3521 23.8868 25.2712 24.0924 25.1209C24.2981 24.9706 24.4506 24.7587 24.5279 24.516L26.3319 18.884L24.3999 12.324L22.9519 10.152H20.7519V9.35201H23.1519C23.2178 9.35235 23.2825 9.36896 23.3405 9.40036C23.3984 9.43176 23.4476 9.47698 23.4839 9.53201L25.0839 11.932C25.1065 11.9652 25.1241 12.0016 25.1359 12.04L27.1359 18.776C27.1596 18.8529 27.1596 18.9351 27.1359 19.012L25.2919 24.76C25.1623 25.1631 24.9081 25.5147 24.566 25.7642C24.2238 26.0136 23.8113 26.148 23.3879 26.148H19.0439C18.7532 26.1485 18.466 26.0855 18.2021 25.9637C17.9382 25.8418 17.7041 25.6638 17.516 25.4422C17.3279 25.2206 17.1904 24.9607 17.113 24.6806C17.0356 24.4004 17.0202 24.1067 17.0679 23.82L17.8679 18.948H9.17187C7.65537 18.9483 6.18248 19.4555 4.98734 20.389C3.7922 21.3225 2.9434 22.6287 2.57587 24.1L2.06787 26.152H3.71987V26.952Z" fill="white"/>
<path d="M33.5519 30.152C33.0772 30.152 32.6132 30.0112 32.2185 29.7475C31.8238 29.4838 31.5162 29.109 31.3345 28.6704C31.1529 28.2319 31.1054 27.7493 31.198 27.2838C31.2906 26.8182 31.5192 26.3906 31.8548 26.0549C32.1904 25.7193 32.6181 25.4907 33.0836 25.3981C33.5492 25.3055 34.0318 25.353 34.4703 25.5347C34.9088 25.7163 35.2837 26.0239 35.5474 26.4186C35.8111 26.8133 35.9519 27.2773 35.9519 27.752C35.9519 28.3885 35.699 28.999 35.2489 29.449C34.7988 29.8991 34.1884 30.152 33.5519 30.152ZM33.5519 26.152C33.2354 26.152 32.9261 26.2458 32.6629 26.4216C32.3998 26.5975 32.1947 26.8473 32.0736 27.1397C31.9525 27.4321 31.9209 27.7538 31.9826 28.0641C32.0443 28.3745 32.1967 28.6596 32.4205 28.8834C32.6443 29.1071 32.9293 29.2595 33.2397 29.3212C33.5501 29.383 33.8718 29.3513 34.1642 29.2302C34.4565 29.1091 34.7064 28.904 34.8822 28.6409C35.058 28.3778 35.1519 28.0684 35.1519 27.752C35.1519 27.3276 34.9833 26.9207 34.6832 26.6206C34.3832 26.3206 33.9762 26.152 33.5519 26.152Z" fill="white"/>
<path d="M28.9518 13.352H24.9878C24.8778 13.3533 24.7715 13.3127 24.6905 13.2384C24.6095 13.164 24.5599 13.0616 24.5518 12.952V10.552C24.5518 10.4459 24.5939 10.3442 24.6689 10.2692C24.7439 10.1941 24.8457 10.152 24.9518 10.152H28.9518V10.952H25.3518V12.552H28.9518V13.352Z" fill="white"/>
<path d="M26.2399 28.276C26.1122 26.5075 26.6416 24.754 27.7266 23.3516C28.8116 21.9492 30.376 20.9965 32.1199 20.676C32.3727 20.6307 32.6277 20.5987 32.8839 20.58C33.9736 20.495 35.0682 20.6607 36.084 21.0642C37.0997 21.4677 38.0096 22.0984 38.7439 22.908C38.8125 22.982 38.8506 23.0791 38.8506 23.18C38.8506 23.2809 38.8125 23.378 38.7439 23.452L37.2599 25.052L36.6759 24.508L37.8999 23.192C37.2502 22.5563 36.4726 22.0662 35.6187 21.7544C34.7648 21.4427 33.8544 21.3164 32.9479 21.384C32.7199 21.4018 32.4929 21.4312 32.2679 21.472C30.7189 21.7555 29.3287 22.6002 28.3635 23.8444C27.3982 25.0887 26.9255 26.6451 27.0359 28.216L26.2399 28.276Z" fill="white"/>
<path d="M33.552 32.552C32.4285 32.5515 31.3408 32.1569 30.4783 31.4369C29.6159 30.717 29.0332 29.7173 28.832 28.612C28.7789 28.3284 28.7521 28.0405 28.752 27.752C28.7513 26.7829 29.0439 25.8362 29.5915 25.0366C30.139 24.2369 30.9158 23.6218 31.8197 23.272C32.7235 22.9222 33.712 22.8543 34.6552 23.077C35.5984 23.2998 36.4521 23.8028 37.104 24.52C37.7305 25.208 38.1436 26.0633 38.2929 26.9818C38.4422 27.9002 38.3214 28.8423 37.945 29.6934C37.5687 30.5444 36.9531 31.2677 36.1731 31.7752C35.3932 32.2827 34.4825 32.5526 33.552 32.552ZM33.552 23.752C32.4911 23.752 31.4737 24.1734 30.7235 24.9236C29.9734 25.6737 29.552 26.6911 29.552 27.752C29.5461 27.9903 29.5621 28.2287 29.6 28.464C29.7105 29.0735 29.961 29.6489 30.3319 30.145C30.7027 30.6412 31.1837 31.0444 31.737 31.3229C32.2902 31.6015 32.9006 31.7477 33.52 31.7502C34.1394 31.7526 34.7509 31.6112 35.3063 31.337C35.8617 31.0629 36.3459 30.6635 36.7206 30.1703C37.0954 29.6771 37.3504 29.1036 37.4658 28.4951C37.5811 27.8865 37.5536 27.2595 37.3853 26.6634C37.217 26.0673 36.9125 25.5184 36.496 25.06C36.1227 24.6498 35.6683 24.3217 35.1615 24.0965C34.6546 23.8714 34.1065 23.754 33.552 23.752Z" fill="white"/>
<path d="M7.95211 32.552C7.20985 32.5518 6.47774 32.3795 5.81333 32.0486C5.14892 31.7176 4.57031 31.2371 4.12297 30.6448C3.67563 30.0525 3.37175 29.3645 3.23522 28.6349C3.09869 27.9053 3.13322 27.154 3.33611 26.44C3.3603 26.3535 3.41292 26.2776 3.48548 26.2246C3.55805 26.1717 3.64633 26.1447 3.73611 26.148H6.37611V26.948H4.03611C3.92047 27.4698 3.91059 28.0095 4.00706 28.5353C4.10352 29.061 4.30436 29.562 4.59772 30.0088C4.89108 30.4556 5.27101 30.8391 5.71507 31.1366C6.15912 31.434 6.65829 31.6395 7.18309 31.7408C7.70789 31.8422 8.24768 31.8373 8.77056 31.7265C9.29344 31.6157 9.78881 31.4012 10.2274 31.0958C10.666 30.7903 11.039 30.4 11.3242 29.948C11.6094 29.496 11.8012 28.9914 11.8881 28.464C11.9316 28.2278 11.953 27.9881 11.9521 27.748C11.9517 27.4791 11.9235 27.2111 11.8681 26.948H9.54411V26.148H12.1841C12.2739 26.1447 12.3622 26.1717 12.4347 26.2246C12.5073 26.2776 12.5599 26.3535 12.5841 26.44C12.7068 26.8652 12.77 27.3054 12.7721 27.748C12.7721 28.0365 12.7453 28.3244 12.6921 28.608C12.491 29.7174 11.9059 30.7206 11.0392 31.4418C10.1725 32.1629 9.07958 32.556 7.95211 32.552Z" fill="white"/>
<path d="M7.95176 30.152C7.31524 30.152 6.70479 29.8991 6.2547 29.4491C5.80461 28.999 5.55176 28.3885 5.55176 27.752C5.55171 27.2314 5.72323 26.7253 6.03976 26.312C6.07702 26.2623 6.12533 26.222 6.18087 26.1942C6.23641 26.1665 6.29766 26.152 6.35976 26.152H9.55976C9.62084 26.1521 9.68109 26.1663 9.73586 26.1933C9.79064 26.2204 9.83849 26.2596 9.87576 26.308C10.1973 26.7206 10.3719 27.2288 10.3718 27.752C10.3718 28.0689 10.309 28.3826 10.1872 28.6751C10.0653 28.9676 9.88674 29.233 9.66176 29.4562C9.43677 29.6793 9.16983 29.8556 8.87634 29.9751C8.58285 30.0945 8.26861 30.1546 7.95176 30.152ZM6.57176 26.952C6.42774 27.194 6.35173 27.4704 6.35176 27.752C6.35176 28.1763 6.52033 28.5833 6.82039 28.8834C7.12045 29.1834 7.52741 29.352 7.95176 29.352C8.3761 29.352 8.78307 29.1834 9.08313 28.8834C9.38319 28.5833 9.55176 28.1763 9.55176 27.752C9.55158 27.4699 9.47411 27.1932 9.32776 26.952H6.57576H6.57176Z" fill="white"/>
</g>
<defs>
<clipPath id="clip0_71_58">
<rect width="40" height="40" fill="white"/>
</clipPath>
</defs>
</svg>
